HIERARCHY
ROOT Bip001_Pelvis
{
  OFFSET 33.2923 95.8902 -28.781
  CHANNELS 6 Xposition Yposition Zposition Zrotation Xrotation Yrotation
  JOINT Bip001_Spine
  {
    OFFSET 1.4188e-005 10.2191 -0.0116013
    CHANNELS 3 Zrotation Xrotation Yrotation
    JOINT Bip001_L_Thigh
    {
      OFFSET 11.0458 -10.2192 0.0116197
      CHANNELS 3 Zrotation Xrotation Yrotation
      JOINT Bip001_L_Calf
      {
        OFFSET -0.707118 -44.0221 0.360014
        CHANNELS 3 Zrotation Xrotation Yrotation
        JOINT Bip001_L_Foot
        {
          OFFSET -0.651902 -40.5938 -3.56146
          CHANNELS 3 Zrotation Xrotation Yrotation
          JOINT Bip001_L_Toe0
          {
            OFFSET 0.0530839 -10.2181 13.1504
            CHANNELS 3 Zrotation Xrotation Yrotation
            End Site
            {
              OFFSET -1.02532e-005 0 7.55606
            }
          }
        }
      }
    }
    JOINT Bip001_R_Thigh
    {
      OFFSET -11.0458 -10.2191 0.0115893
      CHANNELS 3 Zrotation Xrotation Yrotation
      JOINT Bip001_R_Calf
      {
        OFFSET 0.706994 -44.0221 0.35984
        CHANNELS 3 Zrotation Xrotation Yrotation
        JOINT Bip001_R_Foot
        {
          OFFSET 0.651786 -40.5938 -3.5613
          CHANNELS 3 Zrotation Xrotation Yrotation
          JOINT Bip001_R_Toe0
          {
            OFFSET -0.0531479 -10.2181 13.1504
            CHANNELS 3 Zrotation Xrotation Yrotation
            End Site
            {
              OFFSET -1.02894e-005 0 7.55606
            }
          }
        }
      }
    }
    JOINT Bip001_Spine1
    {
      OFFSET 1.87041e-005 14.5736 1.08638
      CHANNELS 3 Zrotation Xrotation Yrotation
      JOINT Bip001_Spine2
      {
        OFFSET 2.24614e-005 14.5058 -1.69078
        CHANNELS 3 Zrotation Xrotation Yrotation
        JOINT Bip001_Neck
        {
          OFFSET 2.20278e-005 15.3945 -0.489414
          CHANNELS 3 Zrotation Xrotation Yrotation
          JOINT Bip001_L_Clavicle
          {
            OFFSET 6.06036 -0.000579998 0.00836775
            CHANNELS 3 Zrotation Xrotation Yrotation
            JOINT Bip001_L_UpperArm
            {
              OFFSET 11.5509 -0.0600302 0.00193952
              CHANNELS 3 Zrotation Xrotation Yrotation
              JOINT Bip001_L_Forearm
              {
                OFFSET 25.9523 0.0806089 -2.15551
                CHANNELS 3 Zrotation Xrotation Yrotation
                JOINT Bip001_L_Hand
                {
                  OFFSET 32.2476 0.153767 1.63968
                  CHANNELS 3 Zrotation Xrotation Yrotation
                  JOINT Bip001_L_Finger0
                  {
                    OFFSET 6.04639 -2.20976 5.90322
                    CHANNELS 3 Zrotation Xrotation Yrotation
                    End Site
                    {
                      OFFSET 4.22376 -1.43895 0.606486
                    }
                  }
                  JOINT Bip001_L_Finger1
                  {
                    OFFSET 11.0826 -0.704819 -0.198153
                    CHANNELS 3 Zrotation Xrotation Yrotation
                    End Site
                    {
                      OFFSET 6.20028 -0.397518 -0.0787166
                    }
                  }
                }
              }
            }
          }
          JOINT Bip001_R_Clavicle
          {
            OFFSET -6.06036 -0.000563197 0.00835105
            CHANNELS 3 Zrotation Xrotation Yrotation
            JOINT Bip001_R_UpperArm
            {
              OFFSET -11.5509 -0.0599978 0.00190698
              CHANNELS 3 Zrotation Xrotation Yrotation
              JOINT Bip001_R_Forearm
              {
                OFFSET -25.9523 0.080682 -2.1559
                CHANNELS 3 Zrotation Xrotation Yrotation
                JOINT Bip001_R_Hand
                {
                  OFFSET -32.2476 0.153858 1.63991
                  CHANNELS 3 Zrotation Xrotation Yrotation
                  JOINT Bip001_R_Finger0
                  {
                    OFFSET -6.04641 -2.20974 5.90321
                    CHANNELS 3 Zrotation Xrotation Yrotation
                    End Site
                    {
                      OFFSET -4.22376 -1.43894 0.606474
                    }
                  }
                  JOINT Bip001_R_Finger1
                  {
                    OFFSET -11.0826 -0.704789 -0.198184
                    CHANNELS 3 Zrotation Xrotation Yrotation
                    End Site
                    {
                      OFFSET -6.20028 -0.397501 -0.0787338
                    }
                  }
                }
              }
            }
          }
          JOINT Bip001_Head
          {
            OFFSET 1.09673e-005 11.2744 2.05948
            CHANNELS 3 Zrotation Xrotation Yrotation
            End Site
            {
              OFFSET 2.89576e-005 20.8808 -2.77728e-005
            }
          }
        }
      }
    }
  }
}
MOTION
Frames:	6
Frame Time:	0.04
31.6709 95.887 -29.0634 -0.411453 -1.61701 0.431211 0.19707 3.20139 -0.728354 6.01767 -3.22375 7.71386 -0.417426 7.75241 -12.0693 5.69976 -0.803207 -0.240928 -2.99013 -5.68213 5.10556 -2.16916 -3.12025 -0.237467 0.401154 9.73236 0.0479514 -5.26171 -9.43359 2.68988 1.7953 -6.42978 2.20999 0.436365 6.38073 -1.47078 0.436381 6.38075 -1.47077 0.408663 0.971685 -2.93722 -24.5297 0.347875 -2.29522 -49.7276 40.3828 -2.31001 12.8185 0.533238 -24.9543 7.77702 0.973764 -2.26207 -3.18055e-015 -3.18055e-015 1.59028e-015 -6.36111e-015 0 3.18055e-015 28.4409 6.98601 17.6741 52.4437 39.7186 -2.07739 -8.81538 4.0984 9.9401 4.50121 7.3564 3.07797 3.97569e-016 0 1.98785e-016 0 6.36111e-015 -0 -0.359349 11.5181 -2.59625 
31.7073 95.8876 -29.1115 -0.496115 -1.64828 0.0493589 0.19564 3.2014 -0.702752 6.06726 -3.18971 7.64805 -0.447725 7.83895 -11.7083 5.7257 -0.870359 -0.243426 -2.99604 -5.65939 5.10047 -2.1458 -3.15822 0.178286 0.474558 9.66449 0.0609753 -5.2544 -9.33738 2.6379 1.79189 -6.38783 2.1938 0.431617 6.39734 -1.41979 0.431618 6.39734 -1.41979 0.776921 1.12582 -3.00804 -24.8041 0.258915 -2.62936 -49.7604 40.3359 -2.25805 12.7413 0.533163 -24.9568 7.88293 1.08202 -2.26412 -0 0 1.59028e-015 -0 -3.18056e-015 -0 28.3317 6.81191 17.4932 50.6975 38.629 0.220965 -8.91564 4.1122 10.4782 3.92268 8.54735 2.85786 -4.82771e-033 3.18055e-015 8.69683e-017 -5.17255e-033 3.18056e-015 9.31803e-017 -0.889275 11.4832 -2.38808 
31.8404 95.8862 -29.1023 -0.383023 -1.6689 -0.135623 0.167244 3.20626 -0.725191 5.79204 -2.99965 7.26727 -0.393951 7.53499 -11.1867 6.0079 -0.551597 -0.27396 -2.87621 -5.8327 5.02276 -2.382 -3.18484 0.097625 0.539109 9.71705 0.0955022 -5.18505 -9.42123 2.89873 1.79194 -6.38738 2.19443 0.375823 6.40898 -1.46329 0.375839 6.40898 -1.46323 1.07318 1.21396 -3.07334 -25.0162 0.248001 -2.99185 -49.7166 40.3385 -2.18328 12.7511 0.644083 -25.0457 7.91983 1.00498 -2.37527 -0 -9.54166e-015 -0 2.64834e-031 -9.54167e-015 1.59028e-015 28.0461 6.7232 17.5163 48.995 40.2484 2.44873 -9.88254 2.52416 10.7769 3.87764 8.90508 2.97988 -3.97569e-016 3.18055e-015 1.98785e-016 -3.97569e-016 3.18056e-015 1.98785e-016 -1.2243 11.4792 -2.25617 
31.9572 95.8891 -29.1237 -0.35841 -1.68836 -0.357909 0.162619 3.21208 -0.747023 5.63949 -2.93479 7.42372 -0.288527 7.49906 -11.0665 6.03611 -0.597448 -0.276165 -2.86116 -5.80157 5.02173 -2.50957 -3.30815 0.310257 0.607262 9.87572 0.0934547 -5.15739 -9.41936 2.90909 1.79371 -6.4019 2.21884 0.366048 6.42271 -1.50663 0.366165 6.42273 -1.50675 1.0687 1.18485 -3.06092 -24.9642 0.337222 -3.17867 -49.5769 40.5952 -2.2622 12.7395 0.604137 -25.0839 7.93409 1.07438 -2.37678 -3.18055e-015 -3.18055e-015 -0 -3.18055e-015 -3.18056e-015 1.59028e-015 28.0175 6.97952 18.1601 46.916 41.7187 4.29709 -10.7241 0.565934 11.2 2.95574 9.31659 2.79579 1.59028e-015 -3.18055e-015 -7.95139e-016 0 0 -0 -1.0964 11.46 -2.28412 
32.0695 95.8864 -29.166 -0.312306 -1.72223 -0.54664 0.161472 3.21525 -0.747032 5.51661 -2.89485 8.08388 -0.20094 7.52173 -11.5341 5.86566 -0.79315 -0.252692 -2.98032 -5.71339 5.11505 -2.64519 -3.41324 0.599596 0.66638 10.0126 0.0276281 -5.14563 -9.41591 2.87321 1.79407 -6.43402 2.24017 0.366302 6.43308 -1.50679 0.366426 6.43308 -1.50679 0.998131 1.01989 -3.10972 -24.9145 0.530423 -3.26353 -49.322 41.0288 -2.46709 12.7112 0.439202 -25.0095 7.82478 1.07815 -2.35926 3.18055e-015 3.18055e-015 -0 -8.82782e-032 3.18056e-015 1.59028e-015 27.8338 7.43863 19.0786 44.9028 42.0525 5.80622 -11.1913 -2.23205 11.9353 2.37414 10.0051 2.20526 0 0 -0 -4.41391e-032 -3.18056e-015 -7.95139e-016 -0.851978 11.5479 -2.43026 
32.1775 95.8837 -29.1929 -0.264209 -1.75331 -0.631383 0.158956 3.21653 -0.730442 5.35375 -2.82328 8.08827 -0.176614 7.40691 -11.4901 6.17004 -0.548953 -0.280486 -2.87401 -5.92728 4.97711 -2.79275 -3.46643 0.625392 0.715534 10.1219 0.052669 -5.13538 -9.4279 2.88699 1.79402 -6.46164 2.26487 0.361134 6.43077 -1.46261 0.361353 6.43076 -1.46263 1.13881 0.826417 -3.27521 -25.0472 0.690114 -3.24098 -49.0719 41.29 -2.81968 12.6337 0.243506 -24.7681 7.85883 1.01087 -2.27263 -3.53112e-031 -1.27222e-014 -1.59028e-015 -0 -9.54167e-015 -0 27.456 7.89136 19.8761 43.0772 42.6047 6.85479 -11.9598 -5.87561 13.0169 2.84868 10.8737 1.53147 -1.59028e-015 0 1.59028e-015 -1.59028e-015 0 1.59028e-015 -0.842693 11.7543 -2.54834 
